#!OML:ASF H:\Dans Jumps\Project 1\Capture day 1\Session 1\subject.ASF
:FULLY-SPECIFIED
:DEGREES
281
root 0.372892 13.5118 -15.708 28.3552 -0.583927 -1.46414
lowerback 27.379 1.19765 -2.4289
upperback 4.63567 1.14029 2.6322
thorax -10.0946 0.653345 3.97223
lowerneck -24.2932 0.243044 -1.83383
upperneck 8.67076 1.10881 -1.36125
head 6.5131 0.338833 -0.0215916
rclavicle 4.77083e-015 7.15625e-015
rhumerus -35.9645 -18.6411 -70.3085
rradius 18.6505
rwrist 37.7836
rhand -18.8944 -23.2741
rfingers 7.12502
rthumb 7.40707 -53.1245
lclavicle 4.77083e-015 7.15625e-015
lhumerus -32.9112 9.49986 80.1493
lradius 7.39993
lwrist -6.67548
lhand -24.1244 -5.6738
lfingers 7.12502
lthumb 2.35721 24.2929
rfemur -82.9943 -0.737717 21.7203
rtibia 89.7173
rfoot -32.647 -16.0852
rtoes 5.12459
lfemur -82.8157 7.68238 -22.8645
ltibia 89.1488
lfoot -29.5413 18.4989
ltoes -7.03588
282
root 0.366617 13.5415 -15.628 28.2281 -0.600281 -1.50952
lowerback 27.1646 1.211 -2.46332
upperback 4.49203 1.15368 2.63849
thorax -10.1506 0.664645 3.99471
lowerneck -24.4664 0.247666 -1.83911
upperneck 8.82381 1.11766 -1.31838
head 6.58949 0.344151 -0.0052138
rclavicle 7.95139e-016 1.53064e-014
rhumerus -34.8699 -18.8198 -70.6478
rradius 18.7981
rwrist 37.7299
rhand -19.2363 -23.4289
rfingers 7.12502
rthumb 7.07702 -53.2906
lclavicle 7.95139e-016 1.53064e-014
lhumerus -31.6966 10.257 80.0006
lradius 7.28721
lwrist -7.54074
lhand -24.4049 -5.83594
lfingers 7.12502
lthumb 2.08633 24.1336
rfemur -82.3176 -0.720017 21.7902
rtibia 89.4727
rfoot -32.6071 -16.3257
rtoes 4.49447
lfemur -82.1286 7.73742 -22.6986
ltibia 88.9501
lfoot -29.6406 18.7003
ltoes -8.05153
283
root 0.359763 13.5802 -15.5441 28.0825 -0.626389 -1.55264
lowerback 26.9052 1.22582 -2.51333
upperback 4.33489 1.16491 2.6384
thorax -10.1982 0.675575 4.01967
lowerneck -24.6232 0.251254 -1.82503
upperneck 9.02803 1.11801 -1.26702
head 6.68044 0.346396 0.00997016
rclavicle -4.17448e-015 -5.96354e-015
rhumerus -33.712 -18.7582 -71.1545
rradius 19.1204
rwrist 37.2451
rhand -19.7284 -23.6458
rfingers 7.12502
rthumb 6.60199 -53.5229
lclavicle -4.17448e-015 -5.96354e-015
lhumerus -30.4926 11.0049 79.8545
lradius 7.3832
lwrist -8.12631
lhand -24.721 -6.0343
lfingers 7.12502
lthumb 1.78104 23.938
rfemur -81.5425 -0.705943 21.8606
rtibia 89.132
rfoot -32.6132 -16.5441
rtoes 3.70429
lfemur -81.3433 7.81288 -22.5369
ltibia 88.6533
lfoot -29.7423 18.8957
ltoes -9.06573
284
root 0.352269 13.6286 -15.4574 27.9188 -0.657031 -1.60373
lowerback 26.6077 1.24343 -2.56726
upperback 4.16352 1.17955 2.63744
thorax -10.2421 0.688513 4.04469
lowerneck -24.7574 0.24987 -1.80305
upperneck 9.27692 1.10735 -1.20459
head 6.7829 0.344381 0.0262898
rclavicle 1.03368e-014 3.93594e-014
rhumerus -32.5063 -18.4594 -71.7947
rradius 19.6147
rwrist 36.4439
rhand -20.3448 -23.9059
rfingers 7.12502
rthumb 6.00695 -53.8007
lclavicle 1.03368e-014 3.93594e-014
lhumerus -29.2991 11.7378 79.7186
lradius 7.67774
lwrist -8.41078
lhand -25.0162 -6.2636
lfingers 7.12502
lthumb 1.49594 23.7109
rfemur -80.6653 -0.691192 21.9423
rtibia 88.686
rfoot -32.66 -16.7373
rtoes 2.83069
lfemur -80.4626 7.91144 -22.3691
ltibia 88.2518
lfoot -29.8443 19.0718
ltoes -10.0084
285
root 0.344545 13.687 -15.3671 27.7317 -0.687578 -1.66674
lowerback 26.2791 1.25927 -2.61754
upperback 3.97706 1.19417 2.63808
thorax -10.2863 0.701737 4.06943
lowerneck -24.8843 0.248796 -1.76652
upperneck 9.5909 1.09329 -1.14448
head 6.9062 0.340496 0.0392622
rclavicle -3.37934e-015 -3.97569e-016
rhumerus -31.2711 -17.9569 -72.518
rradius 20.2524
rwrist 35.4725
rhand -21.0125 -24.158
rfingers 7.12502
rthumb 5.36228 -54.0701
lclavicle -3.37934e-015 -3.97569e-016
lhumerus -28.1281 12.4611 79.5901
lradius 8.15003
lwrist -8.40988
lhand -25.3081 -6.6017
lfingers 7.12502
lthumb 1.21396 23.3746
rfemur -79.6711 -0.6815 22.04
rtibia 88.1268
rfoot -32.7425 -16.8889
rtoes 1.95033
lfemur -79.4739 8.03013 -22.1895
ltibia 87.7388
lfoot -29.9398 19.2308
ltoes -10.8661
286
root 0.336971 13.7563 -15.2724 27.5096 -0.71924 -1.74522
lowerback 25.9333 1.27324 -2.66232
upperback 3.77732 1.20934 2.64464
thorax -10.3358 0.715597 4.09761
lowerneck -25.0001 0.250316 -1.72764
upperneck 9.96961 1.0825 -1.086
head 7.04976 0.337643 0.0518817
rclavicle -1.19271e-015 -1.39149e-014
rhumerus -30.0276 -17.2689 -73.2752
rradius 21.0172
rwrist 34.4375
rhand -21.5996 -24.3675
rfingers 7.12502
rthumb 4.79539 -54.2933
lclavicle -1.19271e-015 -1.39149e-014
lhumerus -26.9808 13.1821 79.4749
lradius 8.7654
lwrist -8.16644
lhand -25.4823 -6.95469
lfingers 7.12502
lthumb 1.04572 23.0225
rfemur -78.5388 -0.680229 22.1549
rtibia 87.4445
rfoot -32.8483 -16.9851
rtoes 1.11033
lfemur -78.3552 8.17065 -21.9936
ltibia 87.1066
lfoot -30.0329 19.367
ltoes -11.631
287
root 0.32979 13.8368 -15.1728 27.2431 -0.743181 -1.82849
lowerback 25.5792 1.28033 -2.7006
upperback 3.56748 1.21877 2.65756
thorax -10.3908 0.727107 4.13132
lowerneck -25.1026 0.253401 -1.69697
upperneck 10.4068 1.07665 -1.02789
head 7.21128 0.336427 0.0664719
rclavicle 1.74931e-014 3.26007e-014
rhumerus -28.7817 -16.4546 -74.0193
rradius 21.8541
rwrist 33.4221
rhand -22.0668 -24.5267
rfingers 7.12502
rthumb 4.34425 -54.4621
lclavicle 1.74931e-014 3.26007e-014
lhumerus -25.8585 13.9029 79.3761
lradius 9.48901
lwrist -7.75765
lhand -25.6092 -7.36132
lfingers 7.12502
lthumb 0.923201 22.6164
rfemur -77.2555 -0.709214 22.2803
rtibia 86.631
rfoot -32.9591 -17.0174
rtoes 0.296719
lfemur -77.0889 8.31437 -21.7842
ltibia 86.3431
lfoot -30.1106 19.4861
ltoes -12.3433
288
root 0.323117 13.929 -15.0677 26.9143 -0.754948 -1.90783
lowerback 25.24 1.27819 -2.7367
upperback 3.3507 1.21791 2.6784
thorax -10.4598 0.734474 4.17643
lowerneck -25.1888 0.262136 -1.67709
upperneck 10.8935 1.08281 -0.975387
head 7.38747 0.339663 0.0826369
rclavicle -5.96354e-016 1.64991e-014
rhumerus -27.5542 -15.4756 -74.7436
rradius 22.7625
rwrist 32.364
rhand -22.3629 -24.6593
rfingers 7.12502
rthumb 4.05833 -54.6004
lclavicle -5.96354e-016 1.64991e-014
lhumerus -24.7628 14.6296 79.2979
lradius 10.2768
lwrist -7.27655
lhand -25.6834 -7.77238
lfingers 7.12502
lthumb 0.851524 22.2057
rfemur -75.7975 -0.784123 22.4096
rtibia 85.6781
rfoot -33.0638 -16.9875
rtoes -0.534362
lfemur -75.6482 8.45521 -21.5668
ltibia 85.4358
lfoot -30.1659 19.582
ltoes -13.0118
289
root 0.316994 14.0339 -14.9566 26.513 -0.74959 -1.96873
lowerback 24.9234 1.26542 -2.77374
upperback 3.1302 1.20349 2.70397
thorax -10.5428 0.736197 4.23217
lowerneck -25.2553 0.275038 -1.66953
upperneck 11.4219 1.09968 -0.929883
head 7.57531 0.346515 0.100025
rclavicle 8.94531e-015 -3.57812e-015
rhumerus -26.3595 -14.4326 -75.3953
rradius 23.6743
rwrist 31.39
rhand -22.5557 -24.7061
rfingers 7.12502
rthumb 3.87216 -54.6507
lclavicle 8.94531e-015 -3.57812e-015
lhumerus -23.4326 12.9686 80.3171
lradius 11.0938
lwrist -4.25437
lhand -26.1713 -8.03782
lfingers 7.12502
lthumb 0.38026 21.9416
rfemur -74.1491 -0.923883 22.5317
rtibia 84.5747
rfoot -33.1434 -16.8958
rtoes -1.41342
lfemur -74.0144 8.58146 -21.3522
ltibia 84.3681
lfoot -30.1848 19.6481
ltoes -13.6206
290
root 0.311381 14.1519 -14.839 26.0347 -0.729102 -2.00195
lowerback 24.6343 1.24292 -2.81786
upperback 2.90779 1.17448 2.73107
thorax -10.6405 0.731987 4.29879
lowerneck -25.2971 0.289467 -1.68041
upperneck 11.9821 1.12473 -0.885851
head 7.77075 0.356046 0.121146
rclavicle 1.39149e-015 7.35503e-015
rhumerus -25.2101 -13.3365 -75.974
rradius 24.579
rwrist 30.4859
rhand -22.6422 -24.7095
rfingers 7.12502
rthumb 3.78859 -54.6556
lclavicle 1.39149e-015 7.35503e-015
lhumerus -22.1883 11.4554 81.1745
lradius 11.9114
lwrist -1.56995
lhand -26.7101 -8.39997
lfingers 7.12502
lthumb -0.140098 21.5797
rfemur -72.3042 -1.13816 22.6398
rtibia 83.311
rfoot -33.1805 -16.7587
rtoes -2.36849
lfemur -72.1768 8.694 -21.1519
ltibia 83.1266
lfoot -30.1524 19.6769
ltoes -14.1847
291
root 0.306268 14.283 -14.7148 25.4828 -0.6919 -2.01072
lowerback 24.3656 1.21008 -2.86125
upperback 2.68501 1.13187 2.75687
thorax -10.7473 0.721775 4.36814
lowerneck -25.3085 0.305325 -1.7056
upperneck 12.5685 1.15641 -0.84371
head 7.9711 0.367623 0.145028
rclavicle 1.0138e-014 1.33186e-014
rhumerus -24.1227 -12.2242 -76.4761
rradius 25.4625
rwrist 29.6888
rhand -22.6608 -24.6984
rfingers 7.12502
rthumb 3.77062 -54.6448
lclavicle 1.0138e-014 1.33186e-014
lhumerus -21.0244 10.0873 81.885
lradius 12.7102
lwrist 0.727105
lhand -27.2562 -8.8613
lfingers 7.12502
lthumb -0.667487 21.1174
rfemur -70.2641 -1.42955 22.7386
rtibia 81.8782
rfoot -33.17 -16.577
rtoes -3.35125
lfemur -70.1382 8.79428 -20.9624
ltibia 81.7029
lfoot -30.0617 19.6569
ltoes -14.6893
292
root 0.301581 14.4267 -14.5839 24.8722 -0.639805 -2.00008
lowerback 24.1033 1.1684 -2.89965
upperback 2.45843 1.0788 2.78054
thorax -10.8601 0.706805 4.43564
lowerneck -25.2859 0.320431 -1.74579
upperneck 13.1861 1.19204 -0.80293
head 8.17745 0.379804 0.171629
rclavicle -3.97569e-016 6.75868e-015
rhumerus -23.1138 -11.1338 -76.8995
rradius 26.3131
rwrist 29.0353
rhand -22.6602 -24.6792
rfingers 7.12502
rthumb 3.77128 -54.6256
lclavicle -3.97569e-016 6.75868e-015
lhumerus -19.9404 8.82656 82.4765
lradius 13.4884
lwrist 2.66991
lhand -27.7386 -9.33927
lfingers 7.12502
lthumb -1.13342 20.6375
rfemur -68.047 -1.79312 22.8307
rtibia 80.2708
rfoot -33.1088 -16.3446
rtoes -4.27966
lfemur -67.9166 8.88848 -20.7815
ltibia 80.0925
lfoot -29.9157 19.5631
ltoes -15.1013
293
root 0.297506 14.5823 -14.4464 24.215 -0.588153 -1.97357
lowerback 23.8276 1.12258 -2.93292
upperback 2.22978 1.02097 2.79636
thorax -10.9666 0.689206 4.49262
lowerneck -25.2266 0.334431 -1.79184
upperneck 13.8384 1.23027 -0.774726
head 8.39085 0.391027 0.195499
rclavicle -6.55989e-015 -4.77083e-015
rhumerus -22.1828 -10.1085 -77.253
rradius 27.1078
rwrist 28.5474
rhand -22.6673 -24.6729
rfingers 7.12502
rthumb 3.76437 -54.6194
lclavicle -6.55989e-015 -4.77083e-015
lhumerus -18.9379 7.64253 82.9662
lradius 14.2439
lwrist 4.31358
lhand -28.1473 -9.85436
lfingers 7.12502
lthumb -1.52822 20.1199
rfemur -65.6707 -2.21252 22.9083
rtibia 78.4865
rfoot -32.9928 -16.0483
rtoes -5.08631
lfemur -65.5274 8.9912 -20.6139
ltibia 78.2957
lfoot -29.7167 19.3827
ltoes -15.414
